# xmcd
#
# Track frame offsets: 
#        182
#        20920
#        35375
#        48275
#        59907
#        77125
#        104782
#        115957
#        128975
#        139892
#
# Disc length: 2049 seconds
#
# Revision: 2
# Processed by: cddbd v1.4PL0 Copyright (c) Steve Scherf et al.
# Submitted via: ExactAudioCopy v0.90b4
#
DISCID=9907ff0a
DTITLE=Various Artist - Country Boogie
DYEAR=1994
DGENRE=Country
TTITLE0=John Michael Montgomery - Beer And Bones (Dance Mix)
TTITLE1=Pam Tillis  - Cleopatra, Queen Of Denial
TTITLE2=Mark Chesnutt - Blame It On Texas
TTITLE3=Chris LeDoux and Garth Brooks - What'cha Gonna Do With A Cowboy
TTITLE4=Joe Diffie - Prop Me Up Beside The Jukebox (If I Die) (Dance M
TTITLE4=ix)
TTITLE5=Confederate Railroad - Queen Of Memphis (Dance Mix)
TTITLE6=Tracy Lawrence  - If The Good Die Young
TTITLE7=Ray Kennedy - What A Way To Go (Dance Mix)
TTITLE8=Neal McCoy - Big Doggin' Around
TTITLE9=Little Texas - Stop On A Dime
EXTD=
EXTT0=
EXTT1=
EXTT2=
EXTT3=
EXTT4=
EXTT5=
EXTT6=
EXTT7=
EXTT8=
EXTT9=
PLAYORDER=
